<?xml version="1.0" standalone="no"?>
<!DOCTYPE svg PUBLIC "-//W3C//DTD SVG 20010904//EN"
 "http://www.w3.org/TR/2001/REC-SVG-20010904/DTD/svg10.dtd">
<svg version="1.0" xmlns="http://www.w3.org/2000/svg"
 width="500.000000pt" height="500.000000pt" viewBox="0 0 500.000000 500.000000"
 preserveAspectRatio="xMidYMid meet">
<metadata>
Created by potrace 1.11, written by Peter Selinger 2001-2013
</metadata>
<g transform="translate(0.000000,500.000000) scale(0.100000,-0.100000)"
fill="#000000" stroke="none">
<path d="M0 2500 l0 -2500 2500 0 2500 0 0 2500 0 2500 -2500 0 -2500 0 0
-2500z m2864 1965 c540 -101 1002 -409 1307 -872 285 -433 388 -973 284 -1489
-158 -782 -779 -1405 -1555 -1560 -651 -129 -1300 55 -1771 504 -536 510 -746
1244 -563 1967 47 185 149 413 262 584 135 205 360 432 557 563 251 165 528
273 805 313 162 23 173 23 360 20 135 -3 207 -10 314 -30z"/>
<path d="M2267 4365 c-347 -42 -683 -185 -952 -405 -103 -84 -271 -263 -343
-365 -221 -312 -334 -644 -349 -1020 -26 -666 293 -1282 854 -1649 186 -122
431 -223 640 -265 755 -151 1515 160 1938 794 286 428 383 922 280 1431 -82
407 -305 779 -629 1051 -404 339 -915 491 -1439 428z m-1171 -1746 c48 -12 47
-11 38 -58 -6 -27 -10 -31 -40 -31 -32 0 -34 2 -34 35 0 28 -4 35 -20 35 -29
0 -48 -36 -62 -117 -9 -58 -9 -74 1 -87 18 -21 46 -5 59 34 9 26 16 30 45 30
l35 0 -8 -36 c-10 -43 -20 -51 -78 -60 -53 -8 -118 10 -132 36 -5 10 -10 43
-10 72 0 69 27 113 83 138 49 23 63 24 123 9z m2481 -24 c42 -48 26 -152 -31
-204 -20 -19 -40 -26 -86 -29 -55 -4 -61 -2 -90 26 -24 25 -30 39 -30 74 1 69
32 125 82 149 59 27 124 21 155 -16z m489 25 c40 -14 56 -43 56 -101 -1 -105
-65 -166 -164 -157 -57 6 -84 27 -92 73 -23 121 88 224 200 185z m-2691 -14
c28 -20 23 -76 -11 -102 l-26 -22 21 -56 c11 -31 21 -59 21 -62 0 -3 -19 -4
-42 -2 -40 3 -42 5 -56 48 -25 81 -22 76 -32 60 -5 -8 -12 -36 -15 -62 l-7
-48 -45 0 c-33 0 -44 3 -40 13 3 8 15 63 27 123 12 60 24 112 27 117 8 13 158
8 178 -7z m170 -24 c11 -67 20 -69 51 -13 18 32 36 51 47 51 21 0 15 -13 -43
-100 -21 -30 -41 -71 -44 -90 -14 -69 -15 -70 -57 -70 -43 0 -44 2 -28 64 10
40 -1 112 -27 181 -5 12 3 15 44 15 l50 0 7 -38z m333 22 c36 -25 26 -98 -17
-131 -9 -7 -37 -15 -64 -19 -46 -6 -48 -8 -58 -50 -11 -43 -13 -44 -50 -44
-22 0 -39 5 -39 10 0 6 11 62 25 126 14 64 25 117 25 120 0 2 35 4 78 4 54 0
84 -5 100 -16z m272 7 c0 -6 -17 -11 -37 -13 l-37 -3 -24 -117 -25 -118 -42 0
-42 0 23 103 c31 135 31 137 -6 137 -16 0 -30 5 -30 10 0 6 43 10 110 10 62 0
110 -4 110 -9z m141 -23 c0 -18 3 -51 8 -73 l7 -40 40 72 39 73 51 0 52 0 -27
-127 -27 -128 -42 -3 c-48 -4 -48 -4 -27 83 24 102 16 104 -36 8 -42 -77 -55
-93 -74 -93 -26 0 -28 5 -41 125 -6 63 -16 60 -28 -10 -14 -81 -27 -115 -42
-115 -9 0 -14 6 -11 13 3 8 15 63 27 123 12 60 24 112 27 117 2 4 26 7 54 7
49 0 49 0 50 -32z m329 19 c0 -8 -11 -65 -25 -127 -14 -62 -25 -115 -25 -117
0 -1 -18 -3 -40 -3 -22 0 -40 5 -40 10 0 6 11 62 25 126 14 64 25 117 25 120
0 2 18 4 40 4 27 0 40 -4 40 -13z m176 -87 c24 -104 25 -103 50 18 11 54 22
82 30 82 18 0 18 1 -11 -134 -14 -64 -25 -118 -25 -121 0 -4 -21 -5 -47 -3
l-47 3 -22 88 c-12 49 -24 91 -27 94 -3 2 -10 -22 -17 -54 -22 -108 -30 -133
-46 -133 -9 0 -14 6 -11 13 3 8 15 63 27 123 12 60 24 113 27 117 3 4 25 7 51
5 l46 -3 22 -95z m338 63 c3 -21 6 -53 6 -70 0 -18 3 -33 8 -33 4 0 23 30 42
68 l35 67 54 3 c41 2 52 0 49 -10 -3 -7 -16 -66 -29 -130 l-23 -118 -43 0
c-24 0 -43 3 -43 8 0 4 9 45 20 92 21 97 16 94 -51 -27 -32 -58 -44 -73 -63
-73 -20 0 -24 6 -30 46 -3 26 -6 61 -6 78 0 17 -4 37 -9 45 -6 8 -15 -18 -27
-78 -14 -70 -22 -91 -35 -91 -16 0 -8 51 36 238 5 19 12 22 54 22 48 0 48 0
55 -37z m731 27 c-3 -5 -21 -10 -39 -10 l-32 0 -24 -120 -24 -120 -44 0 c-37
0 -43 3 -38 18 5 16 46 210 46 218 0 2 -13 4 -30 4 -16 0 -30 5 -30 10 0 6 44
10 111 10 71 0 108 -4 104 -10z"/>
<path d="M3468 2583 c-32 -36 -53 -172 -30 -195 28 -28 73 64 76 153 1 59 -17
75 -46 42z"/>
<path d="M3990 2585 c-32 -39 -53 -186 -28 -201 31 -19 78 91 78 181 0 28 -4
35 -19 35 -10 0 -24 -7 -31 -15z"/>
<path d="M1276 2592 c-3 -5 -8 -28 -12 -50 -5 -34 -4 -42 9 -42 26 0 47 29 47
66 0 27 -4 34 -19 34 -11 0 -22 -4 -25 -8z"/>
<path d="M1771 2556 c-15 -61 -14 -86 4 -86 22 0 45 42 48 86 2 33 -1 39 -19
42 -18 3 -23 -5 -33 -42z"/>
</g>
</svg>
